<?xml version="1.0"?>
<svg version="1.1" xmlns="http://www.w3.org/2000/svg" width="230px" height="60px" style=""><path fill="#3a9be0" d="M30.3916015625,25.64208984375q-0.048828125-0.64697265625,0.10986328125-1.220703125t0.59814453125-0.9521484375t1.4892578125-0.37841796875q0.244140625,0,0.59814453125,0.048828125t0.7080078125,0.15869140625t0.57373046875,0.30517578125t0.2197265625,0.537109375q0,0.9033203125,0.06103515625,2.38037109375t0.15869140625,3.076171875t0.18310546875,3.125t0.15869140625,2.47802734375q1.904296875-0.09765625,3.8330078125-0.09765625t3.80859375-0.09765625l3.369140625-0.09765625l0-2.4169921875q0-4.052734375-0.15869140625-8.11767578125t-0.54931640625-8.11767578125q0-0.29296875,0.244140625-0.47607421875t0.57373046875-0.28076171875t0.68359375-0.1220703125t0.54931640625-0.0244140625q0.5615234375,0,1.20849609375,0.1708984375t0.74462890625,0.732421875l0.146484375,1.0498046875q0.6103515625,4.39453125,0.830078125,8.69140625t0.3173828125,8.59375q0.29296875,0.048828125,0.62255859375,0.15869140625t0.67138671875,0.20751953125q0.244140625,0.09765625,0.69580078125,0.29296875t0.45166015625,0.6103515625q0,0.390625-0.341796875,0.6103515625t-0.76904296875,0.32958984375t-0.830078125,0.13427734375t-0.50048828125,0.0244140625q0.048828125,1.806640625,0.048828125,3.60107421875l0,3.60107421875l0,7.8857421875l0,4.39453125q0,0.29296875-0.28076171875,0.52490234375t-0.67138671875,0.37841796875t-0.81787109375,0.1953125t-0.76904296875,0.048828125t-0.8056640625-0.048828125t-0.830078125-0.1953125t-0.64697265625-0.3662109375t-0.28076171875-0.537109375l0-1.0498046875q0.09765625-4.638671875,0.2197265625-9.19189453125t0.244140625-9.14306640625q-2.6611328125,0.09765625-5.40771484375,0.1220703125t-5.45654296875,0.1220703125q0.29296875,3.4423828125,0.67138671875,6.87255859375t0.79345703125,6.87255859375q0,0.29296875-0.28076171875,0.52490234375t-0.6591796875,0.37841796875t-0.8056640625,0.1953125t-0.76904296875,0.048828125q-0.7080078125,0-1.55029296875-0.244140625t-0.93994140625-0.9033203125q-0.29296875-2.587890625-0.54931640625-5.712890625t-0.45166015625-6.38427734375t-0.30517578125-6.38427734375t-0.10986328125-5.6640625q0-0.6103515625-0.048828125-1.25732421875z M58.288818359375,20.9423828125q0-0.390625,0.28076171875-0.64697265625t0.6591796875-0.40283203125t0.830078125-0.1953125t0.79345703125-0.048828125q0.7080078125,0,1.50146484375,0.1953125t1.18408203125,0.8544921875q0.7080078125,1.1962890625,1.03759765625,2.84423828125t0.62255859375,3.16162109375q0.439453125,2.099609375,1.123046875,4.39453125t1.42822265625,4.67529296875t1.52587890625,4.67529296875t1.3671875,4.296875q0.7080078125-2.9541015625,1.30615234375-6.0546875t1.1474609375-6.201171875t1.1474609375-6.201171875t1.30615234375-6.0791015625q0.146484375-0.7080078125,0.2197265625-1.7822265625t0.30517578125-2.0751953125t0.67138671875-1.72119140625t1.3427734375-0.72021484375q0.9521484375,0,1.28173828125,0.52490234375t0.32958984375,1.52587890625q-0.244140625,2.7587890625-0.79345703125,5.46875t-1.01318359375,5.419921875q-0.6591796875,3.3447265625-1.42822265625,6.70166015625t-1.4404296875,6.72607421875t-1.1474609375,6.75048828125t-0.57373046875,6.77490234375q0.048828125,0.146484375,0.146484375,0.341796875t0.09765625,0.29296875q0,0.29296875-0.2685546875,0.54931640625t-0.67138671875,0.439453125t-0.87890625,0.28076171875t-0.89111328125,0.09765625q-0.390625,0-0.89111328125-0.048828125t-1.0009765625-0.18310546875t-0.87890625-0.35400390625t-0.47607421875-0.5615234375q-0.390625-1.1474609375-0.72021484375-2.23388671875t-0.62255859375-2.23388671875q-1.3916015625-5.0048828125-2.91748046875-9.82666015625t-2.81982421875-9.80224609375q-0.6103515625-2.24609375-0.91552734375-4.40673828125t-0.98876953125-4.26025390625q0.09765625,0.1953125,0.09765625,0.3173828125q-0.09765625-0.341796875-0.1953125-0.64697265625t-0.2197265625-0.67138671875q0,0.09765625,0.0244140625,0.1220703125t0.0244140625,0.0732421875q0-0.048828125-0.0244140625-0.0732421875t-0.0244140625-0.0732421875z"/><path fill="#a031c4" d="M36.1689453125,26.33935546875q-0.041015625-0.54345703125,0.09228515625-1.025390625t0.50244140625-0.7998046875t1.2509765625-0.31787109375q0.205078125,0,0.50244140625,0.041015625t0.5947265625,0.13330078125t0.48193359375,0.25634765625t0.1845703125,0.451171875q0,0.7587890625,0.05126953125,1.99951171875t0.13330078125,2.583984375t0.15380859375,2.625t0.13330078125,2.08154296875q1.599609375-0.08203125,3.2197265625-0.08203125t3.19921875-0.08203125l2.830078125-0.08203125l0-2.0302734375q0-3.404296875-0.13330078125-6.81884765625t-0.46142578125-6.81884765625q0-0.24609375,0.205078125-0.39990234375t0.48193359375-0.23583984375t0.57421875-0.1025390625t0.46142578125-0.0205078125q0.4716796875,0,1.01513671875,0.1435546875t0.62548828125,0.615234375l0.123046875,0.8818359375q0.5126953125,3.69140625,0.697265625,7.30078125t0.2666015625,7.21875q0.24609375,0.041015625,0.52294921875,0.13330078125t0.56396484375,0.17431640625q0.205078125,0.08203125,0.58447265625,0.24609375t0.37939453125,0.5126953125q0,0.328125-0.287109375,0.5126953125t-0.64599609375,0.27685546875t-0.697265625,0.11279296875t-0.42041015625,0.0205078125q0.041015625,1.517578125,0.041015625,3.02490234375l0,3.02490234375l0,6.6240234375l0,3.69140625q0,0.24609375-0.23583984375,0.44091796875t-0.56396484375,0.31787109375t-0.68701171875,0.1640625t-0.64599609375,0.041015625t-0.6767578125-0.041015625t-0.697265625-0.1640625t-0.54345703125-0.3076171875t-0.23583984375-0.451171875l0-0.8818359375q0.08203125-3.896484375,0.1845703125-7.72119140625t0.205078125-7.68017578125q-2.2353515625,0.08203125-4.54248046875,0.1025390625t-4.58349609375,0.1025390625q0.24609375,2.8916015625,0.56396484375,5.77294921875t0.66650390625,5.77294921875q0,0.24609375-0.23583984375,0.44091796875t-0.5537109375,0.31787109375t-0.6767578125,0.1640625t-0.64599609375,0.041015625q-0.5947265625,0-1.30224609375-0.205078125t-0.78955078125-0.7587890625q-0.24609375-2.173828125-0.46142578125-4.798828125t-0.37939453125-5.36279296875t-0.25634765625-5.36279296875t-0.09228515625-4.7578125q0-0.5126953125-0.041015625-1.05615234375z M59.602607421875,22.3916015625q0-0.328125,0.23583984375-0.54345703125t0.5537109375-0.33837890625t0.697265625-0.1640625t0.66650390625-0.041015625q0.5947265625,0,1.26123046875,0.1640625t0.99462890625,0.7177734375q0.5947265625,1.0048828125,0.87158203125,2.38916015625t0.52294921875,2.65576171875q0.369140625,1.763671875,0.943359375,3.69140625t1.19970703125,3.92724609375t1.28173828125,3.92724609375t1.1484375,3.609375q0.5947265625-2.4814453125,1.09716796875-5.0859375t0.9638671875-5.208984375t0.9638671875-5.208984375t1.09716796875-5.1064453125q0.123046875-0.5947265625,0.1845703125-1.4970703125t0.25634765625-1.7431640625t0.56396484375-1.44580078125t1.1279296875-0.60498046875q0.7998046875,0,1.07666015625,0.44091796875t0.27685546875,1.28173828125q-0.205078125,2.3173828125-0.66650390625,4.59375t-0.85107421875,4.552734375q-0.5537109375,2.8095703125-1.19970703125,5.62939453125t-1.2099609375,5.64990234375t-0.9638671875,5.67041015625t-0.48193359375,5.69091796875q0.041015625,0.123046875,0.123046875,0.287109375t0.08203125,0.24609375q0,0.24609375-0.2255859375,0.46142578125t-0.56396484375,0.369140625t-0.73828125,0.23583984375t-0.74853515625,0.08203125q-0.328125,0-0.74853515625-0.041015625t-0.8408203125-0.15380859375t-0.73828125-0.29736328125t-0.39990234375-0.4716796875q-0.328125-0.9638671875-0.60498046875-1.87646484375t-0.52294921875-1.87646484375q-1.1689453125-4.2041015625-2.45068359375-8.25439453125t-2.36865234375-8.23388671875q-0.5126953125-1.88671875-0.76904296875-3.70166015625t-0.83056640625-3.57861328125q0.08203125,0.1640625,0.08203125,0.2666015625q-0.08203125-0.287109375-0.1640625-0.54345703125t-0.1845703125-0.56396484375q0,0.08203125,0.0205078125,0.1025390625t0.0205078125,0.0615234375q0-0.041015625-0.0205078125-0.0615234375t-0.0205078125-0.0615234375z M89.694541015625,26.33935546875q-0.041015625-0.54345703125,0.09228515625-1.025390625t0.50244140625-0.7998046875t1.2509765625-0.31787109375q0.205078125,0,0.50244140625,0.041015625t0.5947265625,0.13330078125t0.48193359375,0.25634765625t0.1845703125,0.451171875q0,0.7587890625,0.05126953125,1.99951171875t0.13330078125,2.583984375t0.15380859375,2.625t0.13330078125,2.08154296875q1.599609375-0.08203125,3.2197265625-0.08203125t3.19921875-0.08203125l2.830078125-0.08203125l0-2.0302734375q0-3.404296875-0.13330078125-6.81884765625t-0.46142578125-6.81884765625q0-0.24609375,0.205078125-0.39990234375t0.48193359375-0.23583984375t0.57421875-0.1025390625t0.46142578125-0.0205078125q0.4716796875,0,1.01513671875,0.1435546875t0.62548828125,0.615234375l0.123046875,0.8818359375q0.5126953125,3.69140625,0.697265625,7.30078125t0.2666015625,7.21875q0.24609375,0.041015625,0.52294921875,0.13330078125t0.56396484375,0.17431640625q0.205078125,0.08203125,0.58447265625,0.24609375t0.37939453125,0.5126953125q0,0.328125-0.287109375,0.5126953125t-0.64599609375,0.27685546875t-0.697265625,0.11279296875t-0.42041015625,0.0205078125q0.041015625,1.517578125,0.041015625,3.02490234375l0,3.02490234375l0,6.6240234375l0,3.69140625q0,0.24609375-0.23583984375,0.44091796875t-0.56396484375,0.31787109375t-0.68701171875,0.1640625t-0.64599609375,0.041015625t-0.6767578125-0.041015625t-0.697265625-0.1640625t-0.54345703125-0.3076171875t-0.23583984375-0.451171875l0-0.8818359375q0.08203125-3.896484375,0.1845703125-7.72119140625t0.205078125-7.68017578125q-2.2353515625,0.08203125-4.54248046875,0.1025390625t-4.58349609375,0.1025390625q0.24609375,2.8916015625,0.56396484375,5.77294921875t0.66650390625,5.77294921875q0,0.24609375-0.23583984375,0.44091796875t-0.5537109375,0.31787109375t-0.6767578125,0.1640625t-0.64599609375,0.041015625q-0.5947265625,0-1.30224609375-0.205078125t-0.78955078125-0.7587890625q-0.24609375-2.173828125-0.46142578125-4.798828125t-0.37939453125-5.36279296875t-0.25634765625-5.36279296875t-0.09228515625-4.7578125q0-0.5126953125-0.041015625-1.05615234375z M113.128203125,43.3505859375q0-1.39453125,0.37939453125-2.6865234375t1.13818359375-2.30712890625t1.89697265625-1.6201171875t2.63525390625-0.60498046875q0.9228515625,0,2.04052734375,0.27685546875t2.10205078125,0.8203125t1.640625,1.38427734375t0.65625,1.927734375q0,0.5126953125-0.17431640625,0.779296875t-0.70751953125,0.2666015625l-0.2255859375-0.041015625q0.5947265625,1.599609375,1.025390625,3.28125t0.8408203125,3.36328125q0.1640625,0.328125,0.24609375,0.58447265625t0.08203125,0.50244140625q0,0.328125-0.1845703125,0.54345703125t-0.48193359375,0.31787109375t-0.615234375,0.1435546875t-0.56396484375,0.041015625q-0.8818359375,0-1.32275390625-0.3076171875t-0.6357421875-0.8408203125t-0.23583984375-1.19970703125t-0.1640625-1.34326171875q-0.24609375,0.7998046875-0.64599609375,1.55859375t-0.943359375,1.36376953125t-1.28173828125,0.9638671875t-1.6611328125,0.35888671875q-1.353515625,0-2.2763671875-0.779296875t-1.48681640625-1.91748046875t-0.8203125-2.43017578125t-0.25634765625-2.3994140625z M116.0403125,43.0634765625q0,0.7587890625,0.1025390625,1.599609375t0.33837890625,1.6611328125t0.60498046875,1.54833984375t0.9228515625,1.28173828125q1.0048828125-1.0869140625,1.48681640625-2.6455078125t0.861328125-3.00439453125t0.861328125-2.4814453125t1.48681640625-1.03564453125q0.6357421875,0,1.06640625,0.2255859375q-0.205078125-0.5126953125-0.6767578125-0.99462890625t-1.05615234375-0.8818359375t-1.2099609375-0.65625t-1.17919921875-0.25634765625q-0.1640625,0-0.37939453125,0.05126953125t-0.33837890625,0.01025390625q-0.8408203125,0.24609375-1.38427734375,0.85107421875t-0.8818359375,1.42529296875t-0.48193359375,1.681640625t-0.1435546875,1.6201171875z M130.90170898438,37.6083984375q0-0.8408203125,0.29736328125-1.4150390625t1.26123046875-0.57421875q0.369140625,0,0.9228515625,0.11279296875t0.6357421875,0.56396484375q0.205078125,1.2099609375,0.2255859375,2.625t0.1435546875,2.666015625q0.4716796875-0.9228515625,1.2099609375-1.9892578125t1.681640625-1.96875t2.05078125-1.4970703125t2.255859375-0.5947265625q0.08203125,0,0.3076171875,0.0615234375t0.42041015625,0.17431640625t0.23583984375,0.25634765625t-0.2255859375,0.2666015625q-0.08203125,0.24609375-0.3486328125,0.29736328125t-0.4716796875,0.05126953125q-0.123046875,0-0.3896484375-0.1025390625q-1.517578125,0.7998046875-2.583984375,2.173828125t-1.7431640625,3.04541015625t-0.984375,3.52734375t-0.3076171875,3.61962890625q0,0.8818359375-0.39990234375,1.06640625t-1.28173828125,0.1845703125q-0.4716796875,0-0.99462890625-0.1025390625t-0.72802734375-0.65625q-0.369140625-1.1689453125-0.60498046875-2.6865234375t-0.35888671875-3.12744140625t-0.17431640625-3.16845703125t-0.05126953125-2.8095703125z M145.47599609375,38.0595703125q0-0.8408203125,0.4921875-1.44580078125t1.19970703125-0.984375t1.54833984375-0.56396484375t1.55859375-0.1845703125q0.5537109375,0,1.4765625,0.1640625t1.8046875,0.4921875t1.52783203125,0.861328125t0.64599609375,1.2509765625q0,0.328125-0.24609375,0.58447265625t-0.5126953125,0.25634765625q-0.5537109375,0-1.0048828125-0.35888671875t-0.93310546875-0.7587890625t-1.05615234375-0.7587890625t-1.2919921875-0.35888671875t-1.30224609375,0.46142578125t-0.58447265625,1.22021484375q0,1.2509765625,0.8818359375,2.45068359375t1.93798828125,2.5224609375t1.93798828125,2.77880859375t0.8818359375,3.2197265625q0,0.7587890625-0.31787109375,1.28173828125t-0.8408203125,0.85107421875t-1.17919921875,0.50244140625t-1.271484375,0.17431640625q-0.6767578125,0-1.5791015625-0.31787109375t-1.7021484375-0.8408203125t-1.34326171875-1.22021484375t-0.54345703125-1.4560546875q0-0.369140625,0.52294921875-0.4716796875t0.76904296875-0.1025390625q0.123046875,0,0.37939453125,0.08203125t0.50244140625,0.1845703125t0.44091796875,0.2255859375t0.15380859375,0.2666015625q0.205078125,0.24609375,0.62548828125,0.72802734375t0.8408203125,0.779296875t0.73828125,0.21533203125t0.31787109375-0.9228515625q0-1.599609375-0.861328125-2.94287109375t-1.87646484375-2.625t-1.87646484375-2.54296875t-0.861328125-2.69677734375z M159.92723632813,45.5859375l0-1.927734375q0-1.0458984375,0.05126953125-2.96337890625t0.13330078125-4.2041015625t0.2255859375-4.76806640625t0.328125-4.68603515625t0.44091796875-3.94775390625t0.58447265625-2.583984375q0.205078125-0.4716796875,0.6767578125-0.5947265625t0.9228515625-0.123046875q0.7177734375,0,1.26123046875,0.31787109375t0.54345703125,1.15869140625l-0.369140625,0.41015625q-0.7177734375,4.7373046875-0.9228515625,9.515625t-0.287109375,9.556640625q0.5126953125-0.7998046875,1.15869140625-1.56884765625t1.435546875-1.36376953125t1.7021484375-0.95361328125t1.99951171875-0.35888671875q1.39453125,0,2.30712890625,0.8408203125t1.50732421875,2.18408203125t0.8818359375,3.00439453125t0.44091796875,3.322265625t0.21533203125,3.14794921875t0.1845703125,2.47119140625q-0.3896484375,0.533203125-1.1484375,0.533203125l-0.0615234375,0q-0.328125,0-0.7177734375-0.08203125t-0.5126953125-0.41015625l0.041015625,0.041015625q-0.287109375-0.6357421875-0.3896484375-1.83544921875t-0.1640625-2.6455078125t-0.21533203125-2.96337890625t-0.46142578125-2.748046875t-0.90234375-2.0302734375t-1.599609375-0.8408203125l-0.123046875,0q-1.2099609375,0-2.0302734375,0.73828125q-0.861328125,0.779296875-1.39453125,2.05078125t-0.8203125,2.830078125t-0.44091796875,3.00439453125t-0.23583984375,2.625t-0.205078125,1.73291015625q-0.123046875,0.4716796875-0.72802734375,0.62548828125t-1.03564453125,0.15380859375q-1.0048828125,0-1.640625-0.57421875q-0.4716796875-1.1279296875-0.5537109375-2.8095703125t-0.08203125-3.28125z M179.5464453125,42.8583984375q0-1.88671875,0.44091796875-3.70166015625t0.74853515625-3.61962890625q0.08203125-0.4716796875,0.64599609375-0.58447265625t0.95361328125-0.11279296875q0.6767578125,0,1.0869140625,0.205078125q0.1640625,0.08203125,0.3076171875,0.1845703125t0.1435546875,0.2666015625q0,1.763671875-0.42041015625,3.4453125t-0.42041015625,3.568359375q0,0.6357421875,0.09228515625,1.19970703125t0.17431640625,1.11767578125l0.123046875,0.5947265625q0,0.1640625,0.0205078125,0.287109375t0.0615234375,0.287109375q0,0.369140625-0.52294921875,0.50244140625t-0.91259765625,0.13330078125q-0.5947265625,0-1.09716796875-0.23583984375t-0.78955078125-0.81005859375l-0.287109375-0.5947265625q-0.24609375-0.4716796875-0.24609375-1.05615234375t-0.1025390625-1.07666015625z M180.8589453125,30.5126953125l0-0.3896484375q0-0.9638671875,0.48193359375-1.72265625t1.44580078125-0.7587890625q0.123046875,0,0.23583984375,0.0205078125t0.23583984375,0.0205078125q0.24609375,0.041015625,0.64599609375,0.19482421875t0.39990234375,0.48193359375l0,0.041015625q-0.08203125,0.1640625-0.1025390625,0.33837890625t-0.1025390625,0.29736328125l0.041015625-0.041015625q-0.24609375,0.6357421875-0.39990234375,1.025390625t-0.33837890625,0.62548828125t-0.46142578125,0.33837890625t-0.78955078125,0.1025390625q-0.08203125,0-0.287109375-0.0205078125t-0.44091796875-0.08203125t-0.39990234375-0.1640625t-0.1640625-0.3076171875z M187.66077148438,30.328125q0-0.287109375,0.615234375-0.4921875t1.39453125-0.33837890625t1.50732421875-0.19482421875t0.99462890625-0.1025390625q0-0.5537109375,0.041015625-1.11767578125t0.2255859375-1.0048828125t0.58447265625-0.70751953125t1.11767578125-0.2666015625q0.5947265625,0,0.90234375,0.1435546875t0.65625,0.5947265625q0.08203125,0.24609375,0.08203125,0.4716796875l0,0.68701171875t-0.041015625,0.70751953125q0.7587890625-0.08203125,1.50732421875-0.19482421875t1.50732421875-0.11279296875q0.5537109375,0,0.7587890625,0.0205078125t0.41015625,0.4921875q0.1640625,0.4716796875-0.39990234375,0.7177734375t-1.353515625,0.369140625t-1.56884765625,0.1845703125t-0.943359375,0.0615234375q-0.24609375,3.52734375-0.50244140625,6.9931640625t-0.25634765625,7.0341796875q0,1.599609375,0.1025390625,3.3017578125t0.57421875,3.2197265625q0.123046875,0.4716796875,0.41015625,0.8818359375t0.287109375,0.8818359375q0,0.287109375-0.2255859375,0.451171875t-0.54345703125,0.27685546875t-0.6357421875,0.13330078125t-0.52294921875,0.0205078125q-1.2919921875,0-1.96875-0.9638671875t-0.97412109375-2.30712890625t-0.31787109375-2.75830078125t-0.0205078125-2.296875q0-1.8046875,0.07177734375-3.69140625t0.17431640625-3.732421875t0.287109375-3.609375t0.4306640625-3.28125q-0.7177734375,0.08203125-1.40478515625,0.1845703125t-1.40478515625,0.1025390625q-0.1640625,0-0.44091796875-0.0205078125t-0.52294921875-0.1025390625t-0.42041015625-0.2255859375t-0.17431640625-0.41015625z M203.34248046875,43.3505859375q0-1.39453125,0.37939453125-2.6865234375t1.13818359375-2.30712890625t1.89697265625-1.6201171875t2.63525390625-0.60498046875q0.9228515625,0,2.04052734375,0.27685546875t2.10205078125,0.8203125t1.640625,1.38427734375t0.65625,1.927734375q0,0.5126953125-0.17431640625,0.779296875t-0.70751953125,0.2666015625l-0.2255859375-0.041015625q0.5947265625,1.599609375,1.025390625,3.28125t0.8408203125,3.36328125q0.1640625,0.328125,0.24609375,0.58447265625t0.08203125,0.50244140625q0,0.328125-0.1845703125,0.54345703125t-0.48193359375,0.31787109375t-0.615234375,0.1435546875t-0.56396484375,0.041015625q-0.8818359375,0-1.32275390625-0.3076171875t-0.6357421875-0.8408203125t-0.23583984375-1.19970703125t-0.1640625-1.34326171875q-0.24609375,0.7998046875-0.64599609375,1.55859375t-0.943359375,1.36376953125t-1.28173828125,0.9638671875t-1.6611328125,0.35888671875q-1.353515625,0-2.2763671875-0.779296875t-1.48681640625-1.91748046875t-0.8203125-2.43017578125t-0.25634765625-2.3994140625z M206.25458984375,43.0634765625q0,0.7587890625,0.1025390625,1.599609375t0.33837890625,1.6611328125t0.60498046875,1.54833984375t0.9228515625,1.28173828125q1.0048828125-1.0869140625,1.48681640625-2.6455078125t0.861328125-3.00439453125t0.861328125-2.4814453125t1.48681640625-1.03564453125q0.6357421875,0,1.06640625,0.2255859375q-0.205078125-0.5126953125-0.6767578125-0.99462890625t-1.05615234375-0.8818359375t-1.2099609375-0.65625t-1.17919921875-0.25634765625q-0.1640625,0-0.37939453125,0.05126953125t-0.33837890625,0.01025390625q-0.8408203125,0.24609375-1.38427734375,0.85107421875t-0.8818359375,1.42529296875t-0.48193359375,1.681640625t-0.1435546875,1.6201171875z"/></svg>
