<?xml version="1.0"?>
<svg version="1.1" xmlns="http://www.w3.org/2000/svg" width="200px" height="50px" style=""><path fill="#3388c4" d="M27.11328125,21.513671875q-0.0390625-0.517578125,0.087890625-0.9765625t0.478515625-0.76171875t1.19140625-0.302734375q0.1953125,0,0.478515625,0.0390625t0.56640625,0.126953125t0.458984375,0.244140625t0.17578125,0.4296875q0,0.72265625,0.048828125,1.904296875t0.126953125,2.4609375t0.146484375,2.5t0.126953125,1.982421875q1.5234375-0.078125,3.06640625-0.078125t3.046875-0.078125l2.6953125-0.078125l0-1.93359375q0-3.2421875-0.126953125-6.494140625t-0.439453125-6.494140625q0-0.234375,0.1953125-0.380859375t0.458984375-0.224609375t0.546875-0.09765625t0.439453125-0.01953125q0.44921875,0,0.966796875,0.13671875t0.595703125,0.5859375l0.1171875,0.83984375q0.48828125,3.515625,0.6640625,6.953125t0.25390625,6.875q0.234375,0.0390625,0.498046875,0.126953125t0.537109375,0.166015625q0.1953125,0.078125,0.556640625,0.234375t0.361328125,0.48828125q0,0.3125-0.2734375,0.48828125t-0.615234375,0.263671875t-0.6640625,0.107421875t-0.400390625,0.01953125q0.0390625,1.4453125,0.0390625,2.880859375l0,2.880859375l0,6.30859375l0,3.515625q0,0.234375-0.224609375,0.419921875t-0.537109375,0.302734375t-0.654296875,0.15625t-0.615234375,0.0390625t-0.64453125-0.0390625t-0.6640625-0.15625t-0.517578125-0.29296875t-0.224609375-0.4296875l0-0.83984375q0.078125-3.7109375,0.17578125-7.353515625t0.1953125-7.314453125q-2.12890625,0.078125-4.326171875,0.09765625t-4.365234375,0.09765625q0.234375,2.75390625,0.537109375,5.498046875t0.634765625,5.498046875q0,0.234375-0.224609375,0.419921875t-0.52734375,0.302734375t-0.64453125,0.15625t-0.615234375,0.0390625q-0.56640625,0-1.240234375-0.1953125t-0.751953125-0.72265625q-0.234375-2.0703125-0.439453125-4.5703125t-0.361328125-5.107421875t-0.244140625-5.107421875t-0.087890625-4.53125q0-0.48828125-0.0390625-1.005859375z M49.4310546875,17.75390625q0-0.3125,0.224609375-0.517578125t0.52734375-0.322265625t0.6640625-0.15625t0.634765625-0.0390625q0.56640625,0,1.201171875,0.15625t0.947265625,0.68359375q0.56640625,0.95703125,0.830078125,2.275390625t0.498046875,2.529296875q0.3515625,1.6796875,0.8984375,3.515625t1.142578125,3.740234375t1.220703125,3.740234375t1.09375,3.4375q0.56640625-2.36328125,1.044921875-4.84375t0.91796875-4.9609375t0.91796875-4.9609375t1.044921875-4.86328125q0.1171875-0.56640625,0.17578125-1.42578125t0.244140625-1.66015625t0.537109375-1.376953125t1.07421875-0.576171875q0.76171875,0,1.025390625,0.419921875t0.263671875,1.220703125q-0.1953125,2.20703125-0.634765625,4.375t-0.810546875,4.3359375q-0.52734375,2.67578125-1.142578125,5.361328125t-1.15234375,5.380859375t-0.91796875,5.400390625t-0.458984375,5.419921875q0.0390625,0.1171875,0.1171875,0.2734375t0.078125,0.234375q0,0.234375-0.21484375,0.439453125t-0.537109375,0.3515625t-0.703125,0.224609375t-0.712890625,0.078125q-0.3125,0-0.712890625-0.0390625t-0.80078125-0.146484375t-0.703125-0.283203125t-0.380859375-0.44921875q-0.3125-0.91796875-0.576171875-1.787109375t-0.498046875-1.787109375q-1.11328125-4.00390625-2.333984375-7.861328125t-2.255859375-7.841796875q-0.48828125-1.796875-0.732421875-3.525390625t-0.791015625-3.408203125q0.078125,0.15625,0.078125,0.25390625q-0.078125-0.2734375-0.15625-0.517578125t-0.17578125-0.537109375q0,0.078125,0.01953125,0.09765625t0.01953125,0.05859375q0-0.0390625-0.01953125-0.05859375t-0.01953125-0.05859375z"/><path fill="#9d32c7" d="M31.890625,22.2109375q-0.03125-0.4140625,0.0703125-0.78125t0.3828125-0.609375t0.953125-0.2421875q0.15625,0,0.3828125,0.03125t0.453125,0.1015625t0.3671875,0.1953125t0.140625,0.34375q0,0.578125,0.0390625,1.5234375t0.1015625,1.96875t0.1171875,2t0.1015625,1.5859375q1.21875-0.0625,2.453125-0.0625t2.4375-0.0625l2.15625-0.0625l0-1.546875q0-2.59375-0.1015625-5.1953125t-0.3515625-5.1953125q0-0.1875,0.15625-0.3046875t0.3671875-0.1796875t0.4375-0.078125t0.3515625-0.015625q0.359375,0,0.7734375,0.109375t0.4765625,0.46875l0.09375,0.671875q0.390625,2.8125,0.53125,5.5625t0.203125,5.5q0.1875,0.03125,0.3984375,0.1015625t0.4296875,0.1328125q0.15625,0.0625,0.4453125,0.1875t0.2890625,0.390625q0,0.25-0.21875,0.390625t-0.4921875,0.2109375t-0.53125,0.0859375t-0.3203125,0.015625q0.03125,1.15625,0.03125,2.3046875l0,2.3046875l0,5.046875l0,2.8125q0,0.1875-0.1796875,0.3359375t-0.4296875,0.2421875t-0.5234375,0.125t-0.4921875,0.03125t-0.515625-0.03125t-0.53125-0.125t-0.4140625-0.234375t-0.1796875-0.34375l0-0.671875q0.0625-2.96875,0.140625-5.8828125t0.15625-5.8515625q-1.703125,0.0625-3.4609375,0.078125t-3.4921875,0.078125q0.1875,2.203125,0.4296875,4.3984375t0.5078125,4.3984375q0,0.1875-0.1796875,0.3359375t-0.421875,0.2421875t-0.515625,0.125t-0.4921875,0.03125q-0.453125,0-0.9921875-0.15625t-0.6015625-0.578125q-0.1875-1.65625-0.3515625-3.65625t-0.2890625-4.0859375t-0.1953125-4.0859375t-0.0703125-3.625q0-0.390625-0.03125-0.8046875z M49.74484375,19.203125q0-0.25,0.1796875-0.4140625t0.421875-0.2578125t0.53125-0.125t0.5078125-0.03125q0.453125,0,0.9609375,0.125t0.7578125,0.546875q0.453125,0.765625,0.6640625,1.8203125t0.3984375,2.0234375q0.28125,1.34375,0.71875,2.8125t0.9140625,2.9921875t0.9765625,2.9921875t0.875,2.75q0.453125-1.890625,0.8359375-3.875t0.734375-3.96875t0.734375-3.96875t0.8359375-3.890625q0.09375-0.453125,0.140625-1.140625t0.1953125-1.328125t0.4296875-1.1015625t0.859375-0.4609375q0.609375,0,0.8203125,0.3359375t0.2109375,0.9765625q-0.15625,1.765625-0.5078125,3.5t-0.6484375,3.46875q-0.421875,2.140625-0.9140625,4.2890625t-0.921875,4.3046875t-0.734375,4.3203125t-0.3671875,4.3359375q0.03125,0.09375,0.09375,0.21875t0.0625,0.1875q0,0.1875-0.171875,0.3515625t-0.4296875,0.28125t-0.5625,0.1796875t-0.5703125,0.0625q-0.25,0-0.5703125-0.03125t-0.640625-0.1171875t-0.5625-0.2265625t-0.3046875-0.359375q-0.25-0.734375-0.4609375-1.4296875t-0.3984375-1.4296875q-0.890625-3.203125-1.8671875-6.2890625t-1.8046875-6.2734375q-0.390625-1.4375-0.5859375-2.8203125t-0.6328125-2.7265625q0.0625,0.125,0.0625,0.203125q-0.0625-0.21875-0.125-0.4140625t-0.140625-0.4296875q0,0.0625,0.015625,0.078125t0.015625,0.046875q0-0.03125-0.015625-0.046875t-0.015625-0.046875z M72.67203125,22.2109375q-0.03125-0.4140625,0.0703125-0.78125t0.3828125-0.609375t0.953125-0.2421875q0.15625,0,0.3828125,0.03125t0.453125,0.1015625t0.3671875,0.1953125t0.140625,0.34375q0,0.578125,0.0390625,1.5234375t0.1015625,1.96875t0.1171875,2t0.1015625,1.5859375q1.21875-0.0625,2.453125-0.0625t2.4375-0.0625l2.15625-0.0625l0-1.546875q0-2.59375-0.1015625-5.1953125t-0.3515625-5.1953125q0-0.1875,0.15625-0.3046875t0.3671875-0.1796875t0.4375-0.078125t0.3515625-0.015625q0.359375,0,0.7734375,0.109375t0.4765625,0.46875l0.09375,0.671875q0.390625,2.8125,0.53125,5.5625t0.203125,5.5q0.1875,0.03125,0.3984375,0.1015625t0.4296875,0.1328125q0.15625,0.0625,0.4453125,0.1875t0.2890625,0.390625q0,0.25-0.21875,0.390625t-0.4921875,0.2109375t-0.53125,0.0859375t-0.3203125,0.015625q0.03125,1.15625,0.03125,2.3046875l0,2.3046875l0,5.046875l0,2.8125q0,0.1875-0.1796875,0.3359375t-0.4296875,0.2421875t-0.5234375,0.125t-0.4921875,0.03125t-0.515625-0.03125t-0.53125-0.125t-0.4140625-0.234375t-0.1796875-0.34375l0-0.671875q0.0625-2.96875,0.140625-5.8828125t0.15625-5.8515625q-1.703125,0.0625-3.4609375,0.078125t-3.4921875,0.078125q0.1875,2.203125,0.4296875,4.3984375t0.5078125,4.3984375q0,0.1875-0.1796875,0.3359375t-0.421875,0.2421875t-0.515625,0.125t-0.4921875,0.03125q-0.453125,0-0.9921875-0.15625t-0.6015625-0.578125q-0.1875-1.65625-0.3515625-3.65625t-0.2890625-4.0859375t-0.1953125-4.0859375t-0.0703125-3.625q0-0.390625-0.03125-0.8046875z M90.52625,35.171875q0-1.0625,0.2890625-2.046875t0.8671875-1.7578125t1.4453125-1.234375t2.0078125-0.4609375q0.703125,0,1.5546875,0.2109375t1.6015625,0.625t1.25,1.0546875t0.5,1.46875q0,0.390625-0.1328125,0.59375t-0.5390625,0.203125l-0.171875-0.03125q0.453125,1.21875,0.78125,2.5t0.640625,2.5625q0.125,0.25,0.1875,0.4453125t0.0625,0.3828125q0,0.25-0.140625,0.4140625t-0.3671875,0.2421875t-0.46875,0.109375t-0.4296875,0.03125q-0.671875,0-1.0078125-0.234375t-0.484375-0.640625t-0.1796875-0.9140625t-0.125-1.0234375q-0.1875,0.609375-0.4921875,1.1875t-0.71875,1.0390625t-0.9765625,0.734375t-1.265625,0.2734375q-1.03125,0-1.734375-0.59375t-1.1328125-1.4609375t-0.625-1.8515625t-0.1953125-1.828125z M92.745,34.953125q0,0.578125,0.078125,1.21875t0.2578125,1.265625t0.4609375,1.1796875t0.703125,0.9765625q0.765625-0.828125,1.1328125-2.015625t0.65625-2.2890625t0.65625-1.890625t1.1328125-0.7890625q0.484375,0,0.8125,0.171875q-0.15625-0.390625-0.515625-0.7578125t-0.8046875-0.671875t-0.921875-0.5t-0.8984375-0.1953125q-0.125,0-0.2890625,0.0390625t-0.2578125,0.0078125q-0.640625,0.1875-1.0546875,0.6484375t-0.671875,1.0859375t-0.3671875,1.28125t-0.109375,1.234375z M104.06796875,30.796875q0-0.640625,0.2265625-1.078125t0.9609375-0.4375q0.28125,0,0.703125,0.0859375t0.484375,0.4296875q0.15625,0.921875,0.171875,2t0.109375,2.03125q0.359375-0.703125,0.921875-1.515625t1.28125-1.5t1.5625-1.140625t1.71875-0.453125q0.0625,0,0.234375,0.046875t0.3203125,0.1328125t0.1796875,0.1953125t-0.171875,0.203125q-0.0625,0.1875-0.265625,0.2265625t-0.359375,0.0390625q-0.09375,0-0.296875-0.078125q-1.15625,0.609375-1.96875,1.65625t-1.328125,2.3203125t-0.75,2.6875t-0.234375,2.7578125q0,0.671875-0.3046875,0.8125t-0.9765625,0.140625q-0.359375,0-0.7578125-0.078125t-0.5546875-0.5q-0.28125-0.890625-0.4609375-2.046875t-0.2734375-2.3828125t-0.1328125-2.4140625t-0.0390625-2.140625z M115.1721875,31.140625q0-0.640625,0.375-1.1015625t0.9140625-0.75t1.1796875-0.4296875t1.1875-0.140625q0.421875,0,1.125,0.125t1.375,0.375t1.1640625,0.65625t0.4921875,0.953125q0,0.25-0.1875,0.4453125t-0.390625,0.1953125q-0.421875,0-0.765625-0.2734375t-0.7109375-0.578125t-0.8046875-0.578125t-0.984375-0.2734375t-0.9921875,0.3515625t-0.4453125,0.9296875q0,0.953125,0.671875,1.8671875t1.4765625,1.921875t1.4765625,2.1171875t0.671875,2.453125q0,0.578125-0.2421875,0.9765625t-0.640625,0.6484375t-0.8984375,0.3828125t-0.96875,0.1328125q-0.515625,0-1.203125-0.2421875t-1.296875-0.640625t-1.0234375-0.9296875t-0.4140625-1.109375q0-0.28125,0.3984375-0.359375t0.5859375-0.078125q0.09375,0,0.2890625,0.0625t0.3828125,0.140625t0.3359375,0.171875t0.1171875,0.203125q0.15625,0.1875,0.4765625,0.5546875t0.640625,0.59375t0.5625,0.1640625t0.2421875-0.703125q0-1.21875-0.65625-2.2421875t-1.4296875-2t-1.4296875-1.9375t-0.65625-2.0546875z M126.18265625,36.875l0-1.46875q0-0.796875,0.0390625-2.2578125t0.1015625-3.203125t0.171875-3.6328125t0.25-3.5703125t0.3359375-3.0078125t0.4453125-1.96875q0.15625-0.359375,0.515625-0.453125t0.703125-0.09375q0.546875,0,0.9609375,0.2421875t0.4140625,0.8828125l-0.28125,0.3125q-0.546875,3.609375-0.703125,7.25t-0.21875,7.28125q0.390625-0.609375,0.8828125-1.1953125t1.09375-1.0390625t1.296875-0.7265625t1.5234375-0.2734375q1.0625,0,1.7578125,0.640625t1.1484375,1.6640625t0.671875,2.2890625t0.3359375,2.53125t0.1640625,2.3984375t0.140625,1.8828125q-0.296875,0.40625-0.875,0.40625l-0.046875,0q-0.25,0-0.546875-0.0625t-0.390625-0.3125l0.03125,0.03125q-0.21875-0.484375-0.296875-1.3984375t-0.125-2.015625t-0.1640625-2.2578125t-0.3515625-2.09375t-0.6875-1.546875t-1.21875-0.640625l-0.09375,0q-0.921875,0-1.546875,0.5625q-0.65625,0.59375-1.0625,1.5625t-0.625,2.15625t-0.3359375,2.2890625t-0.1796875,2t-0.15625,1.3203125q-0.09375,0.359375-0.5546875,0.4765625t-0.7890625,0.1171875q-0.765625,0-1.25-0.4375q-0.359375-0.859375-0.421875-2.140625t-0.0625-2.5z M141.130625,34.796875q0-1.4375,0.3359375-2.8203125t0.5703125-2.7578125q0.0625-0.359375,0.4921875-0.4453125t0.7265625-0.0859375q0.515625,0,0.828125,0.15625q0.125,0.0625,0.234375,0.140625t0.109375,0.203125q0,1.34375-0.3203125,2.625t-0.3203125,2.71875q0,0.484375,0.0703125,0.9140625t0.1328125,0.8515625l0.09375,0.453125q0,0.125,0.015625,0.21875t0.046875,0.21875q0,0.28125-0.3984375,0.3828125t-0.6953125,0.1015625q-0.453125,0-0.8359375-0.1796875t-0.6015625-0.6171875l-0.21875-0.453125q-0.1875-0.359375-0.1875-0.8046875t-0.078125-0.8203125z M142.130625,25.390625l0-0.296875q0-0.734375,0.3671875-1.3125t1.1015625-0.578125q0.09375,0,0.1796875,0.015625t0.1796875,0.015625q0.1875,0.03125,0.4921875,0.1484375t0.3046875,0.3671875l0,0.03125q-0.0625,0.125-0.078125,0.2578125t-0.078125,0.2265625l0.03125-0.03125q-0.1875,0.484375-0.3046875,0.78125t-0.2578125,0.4765625t-0.3515625,0.2578125t-0.6015625,0.078125q-0.0625,0-0.21875-0.015625t-0.3359375-0.0625t-0.3046875-0.125t-0.125-0.234375z M147.31296875,25.25q0-0.21875,0.46875-0.375t1.0625-0.2578125t1.1484375-0.1484375t0.7578125-0.078125q0-0.421875,0.03125-0.8515625t0.171875-0.765625t0.4453125-0.5390625t0.8515625-0.203125q0.453125,0,0.6875,0.109375t0.5,0.453125q0.0625,0.1875,0.0625,0.359375l0,0.5234375t-0.03125,0.5390625q0.578125-0.0625,1.1484375-0.1484375t1.1484375-0.0859375q0.421875,0,0.578125,0.015625t0.3125,0.375q0.125,0.359375-0.3046875,0.546875t-1.03125,0.28125t-1.1953125,0.140625t-0.71875,0.046875q-0.1875,2.6875-0.3828125,5.328125t-0.1953125,5.359375q0,1.21875,0.078125,2.515625t0.4375,2.453125q0.09375,0.359375,0.3125,0.671875t0.21875,0.671875q0,0.21875-0.171875,0.34375t-0.4140625,0.2109375t-0.484375,0.1015625t-0.3984375,0.015625q-0.984375,0-1.5-0.734375t-0.7421875-1.7578125t-0.2421875-2.1015625t-0.015625-1.75q0-1.375,0.0546875-2.8125t0.1328125-2.84375t0.21875-2.75t0.328125-2.5q-0.546875,0.0625-1.0703125,0.140625t-1.0703125,0.078125q-0.125,0-0.3359375-0.015625t-0.3984375-0.078125t-0.3203125-0.171875t-0.1328125-0.3125z M159.2609375,35.171875q0-1.0625,0.2890625-2.046875t0.8671875-1.7578125t1.4453125-1.234375t2.0078125-0.4609375q0.703125,0,1.5546875,0.2109375t1.6015625,0.625t1.25,1.0546875t0.5,1.46875q0,0.390625-0.1328125,0.59375t-0.5390625,0.203125l-0.171875-0.03125q0.453125,1.21875,0.78125,2.5t0.640625,2.5625q0.125,0.25,0.1875,0.4453125t0.0625,0.3828125q0,0.25-0.140625,0.4140625t-0.3671875,0.2421875t-0.46875,0.109375t-0.4296875,0.03125q-0.671875,0-1.0078125-0.234375t-0.484375-0.640625t-0.1796875-0.9140625t-0.125-1.0234375q-0.1875,0.609375-0.4921875,1.1875t-0.71875,1.0390625t-0.9765625,0.734375t-1.265625,0.2734375q-1.03125,0-1.734375-0.59375t-1.1328125-1.4609375t-0.625-1.8515625t-0.1953125-1.828125z M161.4796875,34.953125q0,0.578125,0.078125,1.21875t0.2578125,1.265625t0.4609375,1.1796875t0.703125,0.9765625q0.765625-0.828125,1.1328125-2.015625t0.65625-2.2890625t0.65625-1.890625t1.1328125-0.7890625q0.484375,0,0.8125,0.171875q-0.15625-0.390625-0.515625-0.7578125t-0.8046875-0.671875t-0.921875-0.5t-0.8984375-0.1953125q-0.125,0-0.2890625,0.0390625t-0.2578125,0.0078125q-0.640625,0.1875-1.0546875,0.6484375t-0.671875,1.0859375t-0.3671875,1.28125t-0.109375,1.234375z"/></svg>
